<?xml version="1.0" encoding="UTF-8"?>
<svg version="1.1" xmlns="http://www.w3.org/2000/svg" width="542" height="542">
<path d="M0 0 C178.86 0 357.72 0 542 0 C542 178.86 542 357.72 542 542 C363.14 542 184.28 542 0 542 C0 363.14 0 184.28 0 0 Z " fill="#FEFEFE" transform="translate(0,0)"/>
<path d="M0 0 C0.92619141 0.71736328 0.92619141 0.71736328 1.87109375 1.44921875 C2.84046875 2.17109375 3.80984375 2.89296875 4.80859375 3.63671875 C6.87109375 5.44921875 6.87109375 5.44921875 8.87109375 8.44921875 C12.28842666 7.17821072 15.19775037 5.6886639 18.24609375 3.69921875 C31.9531949 -4.64334728 47.284501 -9.14465018 63.30859375 -8.98828125 C64.40171875 -8.98070801 65.49484375 -8.97313477 66.62109375 -8.96533203 C78.77010009 -8.71735619 88.16334963 -6.13495634 97.87109375 1.44921875 C98.70125 2.05636719 99.53140625 2.66351563 100.38671875 3.2890625 C103.09997204 5.6482277 104.741839 7.95585096 106.62109375 11.01171875 C107.2140625 11.96175781 107.80703125 12.91179687 108.41796875 13.890625 C112.12198741 20.41248582 111.97362996 28.8283982 110.2578125 36.01953125 C103.78351981 51.93431241 87.96851966 62.55145381 72.87109375 69.44921875 C72.21109375 69.44921875 71.55109375 69.44921875 70.87109375 69.44921875 C70.87109375 70.10921875 70.87109375 70.76921875 70.87109375 71.44921875 C71.71671875 71.49046875 72.56234375 71.53171875 73.43359375 71.57421875 C79.3044768 73.06862534 82.70476707 76.53042324 85.80859375 81.63671875 C88.73584817 92.14039638 86.31230921 100.30419115 81.12109375 109.57421875 C72.04970692 121.16543525 59.9870431 128.39088331 45.87109375 132.44921875 C44.83984375 132.74699219 43.80859375 133.04476562 42.74609375 133.3515625 C35.75405106 135.10766581 29.0004091 135.79778313 21.80859375 135.94921875 C20.9990625 135.97983398 20.18953125 136.01044922 19.35546875 136.04199219 C15.01412374 136.04381017 13.3864773 135.86653063 9.89453125 133.0390625 C6.42402725 128.59708538 5.61174046 126.15499108 5.87109375 120.44921875 C9.33609375 119.45921875 9.33609375 119.45921875 12.87109375 118.44921875 C12.90847656 117.37027344 12.94585937 116.29132813 12.984375 115.1796875 C14.20158535 85.39502109 20.82509133 42.49522117 42.87109375 20.44921875 C49.35970706 19.52227399 53.64208967 21.93481682 58.87109375 25.44921875 C59.53109375 26.10921875 60.19109375 26.76921875 60.87109375 27.44921875 C60.76733776 34.05501653 57.75515536 39.0210545 54.62109375 44.69921875 C53.61758178 46.56131075 52.61625563 48.42458248 51.6171875 50.2890625 C50.90151611 51.62106689 50.90151611 51.62106689 50.17138672 52.97998047 C47.8569275 57.37510637 45.80965173 61.87593557 43.87109375 66.44921875 C63.20001037 59.05960295 80.17392988 47.250005 89.046875 27.8828125 C90.57096846 23.38276403 90.376183 18.96448649 88.87109375 14.44921875 C86.62365619 13.2990135 86.62365619 13.2990135 83.87109375 12.44921875 C82.99710937 12.10761719 82.123125 11.76601562 81.22265625 11.4140625 C64.82993688 6.69494632 47.01683768 12.429792 32.5546875 20.23046875 C23.44674067 25.47649624 16.5168675 33.02650917 11.62109375 42.26171875 C10.83992188 43.72544922 10.83992188 43.72544922 10.04296875 45.21875 C9.65625 45.95480469 9.26953125 46.69085938 8.87109375 47.44921875 C7.88109375 47.44921875 6.89109375 47.44921875 5.87109375 47.44921875 C5.57138672 48.27486328 5.57138672 48.27486328 5.265625 49.1171875 C3.30518757 52.39556606 0.5391534 54.45983301 -2.44140625 56.76171875 C-3.05790039 57.24229736 -3.67439453 57.72287598 -4.30957031 58.21801758 C-19.07885378 69.44921875 -19.07885378 69.44921875 -25.12890625 69.44921875 C-25.12890625 70.10921875 -25.12890625 70.76921875 -25.12890625 71.44921875 C-24.28328125 71.49046875 -23.43765625 71.53171875 -22.56640625 71.57421875 C-16.6955232 73.06862534 -13.29523293 76.53042324 -10.19140625 81.63671875 C-7.26415183 92.14039638 -9.68769079 100.30419115 -14.87890625 109.57421875 C-23.95029308 121.16543525 -36.0129569 128.39088331 -50.12890625 132.44921875 C-51.16015625 132.74699219 -52.19140625 133.04476562 -53.25390625 133.3515625 C-60.24594894 135.10766581 -66.9995909 135.79778313 -74.19140625 135.94921875 C-75.40570313 135.9951416 -75.40570313 135.9951416 -76.64453125 136.04199219 C-80.98587626 136.04381017 -82.6135227 135.86653063 -86.10546875 133.0390625 C-89.57597275 128.59708538 -90.38825954 126.15499108 -90.12890625 120.44921875 C-86.66390625 119.45921875 -86.66390625 119.45921875 -83.12890625 118.44921875 C-83.09152344 117.37027344 -83.05414063 116.29132813 -83.015625 115.1796875 C-81.79841465 85.39502109 -75.17490867 42.49522117 -53.12890625 20.44921875 C-46.64029294 19.52227399 -42.35791033 21.93481682 -37.12890625 25.44921875 C-36.46890625 26.10921875 -35.80890625 26.76921875 -35.12890625 27.44921875 C-35.23266224 34.05501653 -38.24484464 39.0210545 -41.37890625 44.69921875 C-42.38241822 46.56131075 -43.38374437 48.42458248 -44.3828125 50.2890625 C-45.09848389 51.62106689 -45.09848389 51.62106689 -45.82861328 52.97998047 C-48.1430725 57.37510637 -50.19034827 61.87593557 -52.12890625 66.44921875 C-32.79998963 59.05960295 -15.82607012 47.250005 -6.953125 27.8828125 C-5.42903154 23.38276403 -5.623817 18.96448649 -7.12890625 14.44921875 C-9.37634381 13.2990135 -9.37634381 13.2990135 -12.12890625 12.44921875 C-13.00289062 12.10761719 -13.876875 11.76601562 -14.77734375 11.4140625 C-31.17006312 6.69494632 -48.98316232 12.429792 -63.4453125 20.23046875 C-73.34411729 25.93201741 -80.32453575 33.75785545 -84.39453125 44.33984375 C-86.12890625 46.44921875 -86.12890625 46.44921875 -88.04827881 46.8739624 C-88.77065735 46.94230286 -89.49303589 47.01064331 -90.23730469 47.08105469 C-91.5215332 47.20254883 -92.80576172 47.32404297 -94.12890625 47.44921875 C-95.94385881 51.91488703 -97.75863208 56.38062811 -99.57324219 60.84643555 C-100.19005535 62.36435903 -100.80691676 63.88226291 -101.42382812 65.40014648 C-102.31262821 67.58702475 -103.20125247 69.77397439 -104.08984375 71.9609375 C-104.50089859 72.97216927 -104.50089859 72.97216927 -104.92025757 74.00382996 C-106.33314587 77.4816773 -107.73879234 80.96220305 -109.12890625 84.44921875 C-94.53883799 75.96788935 -87.22564531 66.1047751 -79.33642578 51.50463867 C-78.05410634 49.32189557 -76.81067374 47.34634427 -75.12890625 45.44921875 C-74.13890625 45.44921875 -73.14890625 45.44921875 -72.12890625 45.44921875 C-72.64157589 51.52801587 -74.55338627 56.29202762 -77.19140625 61.76171875 C-77.59262695 62.60114014 -77.99384766 63.44056152 -78.40722656 64.30541992 C-81.57940423 70.74274428 -85.29152171 76.13673394 -90.12890625 81.44921875 C-90.87140625 82.45984375 -91.61390625 83.47046875 -92.37890625 84.51171875 C-97.00450133 90.03717362 -103.80153809 95.01920938 -110.3828125 97.84765625 C-113.33761265 99.21890552 -113.33761265 99.21890552 -114.37890625 102.1640625 C-114.62640625 103.22753906 -114.87390625 104.29101562 -115.12890625 105.38671875 C-118.3802187 117.35261458 -123.17792735 127.38230759 -133.875 134.19921875 C-142.92855773 139.30950371 -150.66648014 141.62946893 -161.12890625 140.44921875 C-168.12180761 138.30638714 -173.02791993 134.45693671 -177.12890625 128.44921875 C-179.35703392 123.9929634 -178.62208207 118.28460922 -178.12890625 113.44921875 C-176.97872034 110.24623468 -175.38757191 107.97429113 -173.12890625 105.44921875 C-172.66742188 104.9078125 -172.2059375 104.36640625 -171.73046875 103.80859375 C-163.21360875 95.24850096 -148.1230283 92.50416597 -136.45141602 92.43286133 C-135.30177368 92.44095825 -135.30177368 92.44095825 -134.12890625 92.44921875 C-133.96310059 91.80742676 -133.79729492 91.16563477 -133.62646484 90.50439453 C-131.63919851 82.99887953 -129.28643196 75.66218017 -126.75390625 68.32421875 C-126.33052979 67.09388916 -125.90715332 65.86355957 -125.47094727 64.59594727 C-121.4252292 52.95488534 -116.92420539 41.49889354 -112.33251953 30.06396484 C-112.06022018 29.38426132 -111.78792084 28.7045578 -111.50737 28.0042572 C-110.76692467 26.15911094 -110.02216152 24.31569906 -109.27709961 22.47241211 C-108.38392182 20.12067479 -107.65125442 17.90255798 -107.12890625 15.44921875 C-119.79383246 24.83064557 -130.21230043 35.02190553 -133.70703125 51.00390625 C-134.57916596 58.12633971 -134.34369895 65.28946196 -134.12890625 72.44921875 C-136.3125 73.1953125 -136.3125 73.1953125 -139.12890625 73.44921875 C-146.33433103 68.93056253 -151.36404164 62.63233064 -153.6953125 54.46484375 C-155.78835788 44.73501115 -152.43373449 36.12401067 -147.5546875 27.74609375 C-145.84654017 25.21373548 -144.04640988 22.82676861 -142.12890625 20.44921875 C-141.10796875 19.18271484 -141.10796875 19.18271484 -140.06640625 17.890625 C-131.03612461 7.29616958 -118.29532101 -2.52386032 -104.12890625 -4.55078125 C-92.81631612 -5.43435103 -86.77840821 -3.60071778 -78.12890625 3.44921875 C-77.25492187 3.00191406 -76.3809375 2.55460938 -75.48046875 2.09375 C-52.60477389 -9.30617144 -22.33985707 -16.27325368 0 0 Z " fill="#D32410" transform="translate(301.12890625,188.55078125)"/>
<path d="M0 0 C1.2684375 0.86625 1.2684375 0.86625 2.5625 1.75 C4.78328645 5.22601358 4.81138777 8.0900054 4 12 C0.56019525 21.8598452 -5.73120762 28.81487718 -13 36 C-13.65871094 36.66902344 -14.31742187 37.33804688 -14.99609375 38.02734375 C-21.62300978 44.3122254 -33.68003512 53 -43 53 C-41.53405865 48.16837697 -39.54182581 43.84871764 -37.25 39.375 C-36.89873047 38.67785889 -36.54746094 37.98071777 -36.18554688 37.26245117 C-34.5306929 33.98165061 -32.85119733 30.71708736 -31.140625 27.46484375 C-30.59921875 26.42457031 -30.0578125 25.38429687 -29.5 24.3125 C-29.0153125 23.40113281 -28.530625 22.48976562 -28.03125 21.55078125 C-26.89806206 18.74785804 -26.53604029 16.98829966 -27 14 C-28.38291303 12.36741379 -28.38291303 12.36741379 -30.3125 11.25 C-30.92738281 10.84265625 -31.54226563 10.4353125 -32.17578125 10.015625 C-36.17159709 7.79097378 -39.5136213 7.23959683 -44 8 C-51.71886739 15.21894075 -56.23616662 29.24475837 -60 39 C-60.33 38.34 -60.66 37.68 -61 37 C-61.99 37.33 -62.98 37.66 -64 38 C-63.67 36.02 -63.34 34.04 -63 32 C-67.11400257 33.24723155 -68.33168885 35.89280684 -70.24633789 39.45898438 C-70.61879639 40.17376953 -70.99125488 40.88855469 -71.375 41.625 C-77.79103424 53.44421706 -85.51918931 64.90608305 -98 71 C-98.66 71 -99.32 71 -100 71 C-97.75618545 62.71413531 -94.64649405 54.86490941 -91.375 46.9375 C-90.86682126 45.69090445 -90.35900642 44.44416048 -89.8515625 43.19726562 C-86.13802083 34.13802083 -86.13802083 34.13802083 -85 33 C-82.32941149 32.85884839 -79.67567762 32.95752893 -77 33 C-76.773125 32.175 -76.54625 31.35 -76.3125 30.5 C-71.42856026 17.4761607 -61.2386574 9.02171978 -49 3 C-44.72806958 1.11635349 -40.4285189 -0.52382703 -36 -2 C-35.278125 -2.2475 -34.55625 -2.495 -33.8125 -2.75 C-23.54130354 -5.638774 -9.02682435 -6.20459526 0 0 Z " fill="#FEFBFB" transform="translate(292,202)"/>
<path d="M0 0 C2.37570543 -0.0816082 4.74855841 -0.14077222 7.125 -0.1875 C7.79015625 -0.21263672 8.4553125 -0.23777344 9.140625 -0.26367188 C15.00876247 -0.34996801 18.72609898 1.32449398 23.375 4.75 C25.74181221 8.0271246 25.53784042 10.03342688 25 14 C20.94482084 23.46208471 12.07359982 29.62877673 3 34 C-0.62605814 35.22247334 -4.26142692 36.18973891 -8 37 C-8.83026605 23.93099735 -5.53645972 11.75129987 0 0 Z " fill="#FEFCFB" transform="translate(340,267)"/>
<path d="M0 0 C2.37570543 -0.0816082 4.74855841 -0.14077222 7.125 -0.1875 C7.79015625 -0.21263672 8.4553125 -0.23777344 9.140625 -0.26367188 C15.00876247 -0.34996801 18.72609898 1.32449398 23.375 4.75 C25.74181221 8.0271246 25.53784042 10.03342688 25 14 C20.94482084 23.46208471 12.07359982 29.62877673 3 34 C-0.62605814 35.22247334 -4.26142692 36.18973891 -8 37 C-8.83026605 23.93099735 -5.53645972 11.75129987 0 0 Z " fill="#FEFCFB" transform="translate(244,267)"/>
<path d="M0 0 C3.67124703 0.57482991 5.35241999 1.98771391 7.93359375 4.60546875 C8.66513672 5.34216797 9.39667969 6.07886719 10.15039062 6.83789062 C10.90513672 7.61326172 11.65988281 8.38863281 12.4375 9.1875 C13.56381836 10.32155273 13.56381836 10.32155273 14.71289062 11.47851562 C26 22.92445855 26 22.92445855 26 27 C24.68 27.33 23.36 27.66 22 28 C22.67804688 28.71542969 23.35609375 29.43085938 24.0546875 30.16796875 C29.15380334 35.60358383 34.08101634 41.13804352 38.6875 47 C39.3379126 47.80860474 39.3379126 47.80860474 40.00146484 48.63354492 C42.44455405 51.80318674 43 52.83488935 43 57 C37.49248209 55.60272231 35.06280752 51.85391283 31.75 47.5625 C30.59392152 46.10142676 29.43767098 44.64048966 28.28125 43.1796875 C27.72050781 42.46393555 27.15976562 41.74818359 26.58203125 41.01074219 C24.50654021 38.3728187 22.38324852 35.77894627 20.25 33.1875 C19.55648438 32.33414063 18.86296875 31.48078125 18.1484375 30.6015625 C16.59550181 28.72109856 15.01351468 26.86449877 13.4140625 25.0234375 C12.57617188 24.04632813 11.73828125 23.06921875 10.875 22.0625 C10.10929687 21.18722656 9.34359375 20.31195313 8.5546875 19.41015625 C7 17 7 17 7.1953125 14.74609375 C8 13 8 13 9 12 C8.3503125 11.30132812 7.700625 10.60265625 7.03125 9.8828125 C5.77828125 8.51769531 5.77828125 8.51769531 4.5 7.125 C3.6646875 6.22007812 2.829375 5.31515625 1.96875 4.3828125 C0 2 0 2 0 0 Z " fill="#1B3AC0" transform="translate(386,411)"/>
<path d="M0 0 C1.32 0 2.64 0 4 0 C3.41177432 3.04958378 2.55929963 4.86554906 0.55078125 7.22265625 C0.039104 7.83455811 -0.47257324 8.44645996 -0.99975586 9.0769043 C-1.55671143 9.73215088 -2.11366699 10.38739746 -2.6875 11.0625 C-8.50006371 18.02632475 -13.91868541 25.2074785 -19.15307617 32.61547852 C-22.3908881 37.11862027 -25.47838852 40.75354802 -30 44 C-30.66 44 -31.32 44 -32 44 C-31.34 42.35 -30.68 40.7 -30 39 C-30.33 39 -30.66 39 -31 39 C-31.66 39 -32.32 39 -33 39 C-32.53860846 33.83241479 -30.93486823 31.04963378 -27.75 27 C-26.93789062 25.96359375 -26.12578125 24.9271875 -25.2890625 23.859375 C-24.53367187 22.91578125 -23.77828125 21.9721875 -23 21 C-22.47148437 20.30390625 -21.94296875 19.6078125 -21.3984375 18.890625 C-20.125 17.25 -20.125 17.25 -18 15 C-17.01 15 -16.02 15 -15 15 C-14.67 15.99 -14.34 16.98 -14 18 C-13.61142822 17.49025635 -13.22285645 16.9805127 -12.82250977 16.45532227 C-11.06994243 14.15712702 -9.31623658 11.8598031 -7.5625 9.5625 C-6.95083984 8.76005859 -6.33917969 7.95761719 -5.70898438 7.13085938 C-5.12568359 6.36708984 -4.54238281 5.60332031 -3.94140625 4.81640625 C-3.40201416 4.10943604 -2.86262207 3.40246582 -2.30688477 2.67407227 C-1 1 -1 1 0 0 Z " fill="#1B3AC0" transform="translate(152,414)"/>
<path d="M0 0 C7.17887328 0.34937738 11.91903689 2.78673348 18.0625 6.375 C27.12212562 11.52571325 36.3201414 16.12459643 45.84985352 20.34521484 C46.77209717 20.76754395 47.69434082 21.18987305 48.64453125 21.625 C49.46284424 21.98851562 50.28115723 22.35203125 51.12426758 22.7265625 C53 24 53 24 53.7722168 26.1484375 C53.84738525 26.75945312 53.92255371 27.37046875 54 28 C49.11926056 29.20490284 46.59410069 28.80656518 42.10546875 26.60546875 C40.99244385 26.06647949 39.87941895 25.52749023 38.73266602 24.97216797 C36.97780884 24.08875732 36.97780884 24.08875732 35.1875 23.1875 C33.97545558 22.58944573 32.76313275 21.99195536 31.55053711 21.39501953 C6.66504761 9.04698555 6.66504761 9.04698555 0 3 C0 2.01 0 1.02 0 0 Z " fill="#0E30BD" transform="translate(26,150)"/>
<path d="M0 0 C-1.36875952 4.10627856 -3.97590522 4.98469733 -7.625 6.875 C-8.34486084 7.25140625 -9.06472168 7.6278125 -9.80639648 8.015625 C-17.72971214 12.03772643 -25.88786511 15.52760781 -34.0625 19 C-34.73976135 19.29098572 -35.41702271 19.58197144 -36.11480713 19.8817749 C-49.71744116 25.70313136 -49.71744116 25.70313136 -57 26 C-55.85881769 22.57645307 -55.51097955 22.42939507 -52.484375 20.8359375 C-51.73784668 20.44035645 -50.99131836 20.04477539 -50.22216797 19.63720703 C-49.40635254 19.22067871 -48.59053711 18.80415039 -47.75 18.375 C-46.90969238 17.93913574 -46.06938477 17.50327148 -45.20361328 17.05419922 C-36.45741185 12.59323344 -27.46169751 8.75324875 -18.3894043 5.01171875 C-15.22801725 3.67312797 -12.12077426 2.22392615 -9.01831055 0.75439453 C-5.89340301 -0.41361857 -3.29887752 -0.28075553 0 0 Z " fill="#0E2FBC" transform="translate(87,351)"/>
<path d="M0 0 C-0.33 1.32 -0.66 2.64 -1 4 C-1.64735107 4.17539307 -2.29470215 4.35078613 -2.96166992 4.53149414 C-14.52236133 7.67829375 -26.0284321 10.89287464 -37.375 14.75 C-57.26719519 21.49430971 -57.26719519 21.49430971 -66 21 C-65 18 -65 18 -63.35205078 17.11206055 C-62.64032715 16.87269775 -61.92860352 16.63333496 -61.1953125 16.38671875 C-60.39407959 16.11134277 -59.59284668 15.8359668 -58.76733398 15.55224609 C-57.89536377 15.26687988 -57.02339355 14.98151367 -56.125 14.6875 C-55.22531494 14.38408691 -54.32562988 14.08067383 -53.39868164 13.76806641 C-50.60353773 12.83138414 -47.80270975 11.91376559 -45 11 C-43.7617749 10.59080322 -43.7617749 10.59080322 -42.49853516 10.17333984 C-33.64920324 7.25496242 -24.74259709 4.56756366 -15.75 2.125 C-14.5887561 1.80184814 -14.5887561 1.80184814 -13.40405273 1.47216797 C-8.79283928 0.25468254 -4.76874221 -0.21446724 0 0 Z " fill="#1233BE" transform="translate(521,188)"/>
<path d="M0 0 C1.32 0.33 2.64 0.66 4 1 C3.42689768 5.20197538 2.44764302 8.74736124 0.77734375 12.640625 C0.32464111 13.70361816 -0.12806152 14.76661133 -0.59448242 15.86181641 C-1.07892822 16.97991699 -1.56337402 18.09801758 -2.0625 19.25 C-2.55403564 20.39774902 -3.04557129 21.54549805 -3.55200195 22.72802734 C-7.61602615 32.1898416 -11.76716582 41.61256833 -16 51 C-17.32 50.67 -18.64 50.34 -20 50 C-19.51107381 42.83255012 -16.67254841 36.64017089 -13.9375 30.0625 C-13.44596436 28.86713623 -12.95442871 27.67177246 -12.44799805 26.44018555 C-8.69189369 17.41149927 -4.60846673 8.62271855 0 0 Z " fill="#1031BD" transform="translate(363,26)"/>
<path d="M0 0 C1.90014648 0.6472168 1.90014648 0.6472168 4 2 C4.95727539 4.49926758 4.95727539 4.49926758 5.59765625 7.64453125 C5.84193359 8.79759766 6.08621094 9.95066406 6.33789062 11.13867188 C6.57701172 12.35103516 6.81613281 13.56339844 7.0625 14.8125 C7.55286688 17.17328485 8.04375122 19.53396228 8.53515625 21.89453125 C8.77339111 23.07136475 9.01162598 24.24819824 9.25708008 25.46069336 C9.98889721 28.94710577 10.80517779 32.40433026 11.640625 35.8671875 C12.77981953 40.74314768 13.45393555 45.31422087 13.6875 50.3125 C13.78611328 52.22482422 13.78611328 52.22482422 13.88671875 54.17578125 C13.92410156 55.10777344 13.96148437 56.03976562 14 57 C12.68 57 11.36 57 10 57 C7.89577075 51.10799542 6.29961461 45.31186208 5.17578125 39.16015625 C5.02465378 38.35315781 4.87352631 37.54615936 4.71781921 36.71470642 C4.40293977 35.0220773 4.09135353 33.32883243 3.78295898 31.63500977 C3.31390385 29.07017636 2.82848195 26.50880476 2.34179688 23.94726562 C0.83996963 15.8805683 -0.44808966 8.24315879 0 0 Z " fill="#1132BD" transform="translate(307,460)"/>
<path d="M0 0 C0 1.32 0 2.64 0 4 C1.32 4 2.64 4 4 4 C3 7 3 7 0.59375 8.28125 C-0.4271875 8.6834375 -1.448125 9.085625 -2.5 9.5 C-3.5828125 9.92667969 -4.665625 10.35335938 -5.78125 10.79296875 C-17 15 -17 15 -22 15 C-21 12 -21 12 -17.9375 10.3125 C-16.968125 9.879375 -15.99875 9.44625 -15 9 C-15.55461914 9.18175781 -16.10923828 9.36351562 -16.68066406 9.55078125 C-19.20184503 10.37324932 -21.72584661 11.18670239 -24.25 12 C-25.12269531 12.28617187 -25.99539062 12.57234375 -26.89453125 12.8671875 C-27.73886719 13.13789063 -28.58320312 13.40859375 -29.453125 13.6875 C-30.61569824 14.06455078 -30.61569824 14.06455078 -31.80175781 14.44921875 C-34 15 -34 15 -38 15 C-37.70776367 13.11132812 -37.70776367 13.11132812 -37 11 C-34.41899596 9.61699431 -32.03076772 8.5340376 -29.3125 7.5 C-28.55026123 7.19956787 -27.78802246 6.89913574 -27.00268555 6.58959961 C-9.057288 -0.33947856 -9.057288 -0.33947856 0 0 Z " fill="#1838BF" transform="translate(80,325)"/>
<path d="M0 0 C3.24282643 0.56810222 4.70604883 1.37164944 6.8125 3.88671875 C7.32466064 4.4885498 7.83682129 5.09038086 8.36450195 5.71044922 C9.17407349 6.68908936 9.17407349 6.68908936 10 7.6875 C10.5674292 8.35797363 11.1348584 9.02844727 11.71948242 9.71923828 C12.90167209 11.11662482 14.08026006 12.51706573 15.25537109 13.92041016 C17.91678948 17.09280895 20.61515426 20.23315597 23.3125 23.375 C23.80459961 23.95032471 24.29669922 24.52564941 24.80371094 25.1184082 C28.81006788 29.79856154 32.8799621 34.41948728 37 39 C36.67 39.99 36.34 40.98 36 42 C32.11661042 41.90402269 30.25124839 40.53967203 27.6171875 37.89453125 C26.35691377 36.54577307 25.11018138 35.18427456 23.875 33.8125 C23.21773926 33.09650635 22.56047852 32.3805127 21.88330078 31.64282227 C15.89136422 25.03974605 10.31867591 18.15300473 5 11 C4.53368164 10.40074707 4.06736328 9.80149414 3.58691406 9.18408203 C3.12768555 8.57806152 2.66845703 7.97204102 2.1953125 7.34765625 C1.77523926 6.80246338 1.35516602 6.25727051 0.92236328 5.69555664 C0 4 0 4 0 0 Z " fill="#0E2FBD" transform="translate(99,83)"/>
<path d="M0 0 C1.52152079 0.11633358 3.04220723 0.2435887 4.5625 0.375 C5.40941406 0.44460937 6.25632812 0.51421875 7.12890625 0.5859375 C9.81591941 0.97345232 12.25366745 1.67378922 14.84692383 2.45166016 C20.75813815 3.95711286 26.90044982 4.60447775 32.92773438 5.5 C38.12864996 6.29678898 43.07447785 7.06095437 48 9 C47.67 10.32 47.34 11.64 47 13 C39.36859912 13.26569674 32.45019305 12.6125569 25 11 C23.5169588 10.69385671 22.03388319 10.38788011 20.55078125 10.08203125 C18.95024336 9.7434967 17.34998293 9.40364775 15.75 9.0625 C14.99323975 8.90491211 14.23647949 8.74732422 13.45678711 8.58496094 C8.67089973 7.5355672 4.44593637 6.06418474 0 4 C0 2.68 0 1.36 0 0 Z " fill="#0F30BD" transform="translate(21,224)"/>
<path d="M0 0 C12.31999636 -0.36715221 24.42566816 0.14036974 36.6875 1.375 C37.95094238 1.50108643 39.21438477 1.62717285 40.51611328 1.75708008 C47.43464661 2.49222584 54.21160456 3.46697781 61 5 C61.495 6.98 61.495 6.98 62 9 C61.14889648 8.93868896 60.29779297 8.87737793 59.42089844 8.81420898 C53.32817243 8.376926 47.2352033 7.94587783 41.140625 7.53515625 C19.80270782 6.08203098 19.80270782 6.08203098 9.375 4.9375 C8.6418457 4.85830322 7.90869141 4.77910645 7.15332031 4.69750977 C2.25906627 4.12953313 2.25906627 4.12953313 0 3 C0 2.01 0 1.02 0 0 Z " fill="#1132BD" transform="translate(447,280)"/>
<path d="M0 0 C0.99 0.33 1.98 0.66 3 1 C2.78249025 6.64851955 -0.94879781 9.50935615 -4.73828125 13.234375 C-5.415457 13.91300598 -6.09263275 14.59163696 -6.79032898 15.29083252 C-8.22218132 16.72102702 -9.65898335 18.14628084 -11.1003418 19.56689453 C-13.30622203 21.74380448 -15.49282853 23.93877971 -17.67773438 26.13671875 C-19.07180633 27.52455372 -20.46695319 28.91130996 -21.86328125 30.296875 C-22.51758621 30.9541156 -23.17189117 31.6113562 -23.84602356 32.28851318 C-24.7716938 33.19515717 -24.7716938 33.19515717 -25.71606445 34.12011719 C-26.25487747 34.65352722 -26.79369049 35.18693726 -27.34883118 35.73651123 C-29.21270015 37.16276 -30.70789178 37.59131368 -33 38 C-33.495 36.515 -33.495 36.515 -34 35 C-26.4531028 22.25848524 -11.98359256 8.5879419 0 0 Z " fill="#1434BE" transform="translate(430,93)"/>
<path d="M0 0 C2.24486002 -0.07015188 4.48878955 -0.11978009 6.734375 -0.15869141 C7.9409375 -0.18447266 9.1475 -0.21025391 10.390625 -0.23681641 C13.234375 0.09130859 13.234375 0.09130859 15.140625 1.60693359 C15.68203125 2.34169922 15.68203125 2.34169922 16.234375 3.09130859 C7.94076506 8.62038189 -8.28443579 6.27762004 -18.11328125 6.27661133 C-20.55485343 6.27884447 -22.99600447 6.29722314 -25.4375 6.31591797 C-26.99999848 6.31884478 -28.56249906 6.32083433 -30.125 6.32177734 C-31.21237457 6.33255562 -31.21237457 6.33255562 -32.32171631 6.34355164 C-36.02877952 6.32658218 -37.59603543 6.20436831 -40.765625 4.09130859 C-34.19768057 -0.28732103 -24.43800097 0.787404 -16.765625 0.52880859 C-15.57259766 0.48852539 -14.37957031 0.44824219 -13.15039062 0.40673828 C-8.76708752 0.26537973 -4.38318588 0.14471323 0 0 Z " fill="#1031BD" transform="translate(64.765625,273.90869140625)"/>
<path d="M0 0 C0.99 0 1.98 0 3 0 C2.39284558 6.67081353 0.76143465 12.7290832 -1.1875 19.125 C-3.09990624 25.5043116 -4.99326983 31.88007728 -6.69140625 38.3203125 C-6.95477783 39.31788574 -7.21814941 40.31545898 -7.48950195 41.34326172 C-7.98613164 43.2414553 -8.47586706 45.14146977 -8.95776367 47.04345703 C-9.18310791 47.90052246 -9.40845215 48.75758789 -9.640625 49.640625 C-9.83172852 50.38860352 -10.02283203 51.13658203 -10.21972656 51.90722656 C-11.12979148 54.34811407 -12.26924383 56.05852399 -14 58 C-14.66 58 -15.32 58 -16 58 C-15.56725441 49.05659106 -13.19143326 40.95419818 -10.69824219 32.4140625 C-9.77564342 29.22432241 -8.89398414 26.02395543 -8.01391602 22.82226562 C-7.1988139 19.85961704 -6.37234092 16.90022448 -5.54345703 13.94140625 C-5.05633374 12.20124253 -4.57285022 10.46006089 -4.08984375 8.71875 C-3.83332031 7.8215625 -3.57679688 6.924375 -3.3125 6 C-2.99732422 4.88625 -2.99732422 4.88625 -2.67578125 3.75 C-2 2 -2 2 0 0 Z " fill="#1535BE" transform="translate(215,460)"/>
<path d="M0 0 C0.66 0 1.32 0 2 0 C1.18815314 12.86136345 -0.64456745 25.40735387 -3 38.0625 C-3.16604736 38.96742188 -3.33209473 39.87234375 -3.50317383 40.8046875 C-4.31676046 45.07131972 -5.15321397 49.03435678 -7 53 C-8.32 53 -9.64 53 -11 53 C-10.6158023 42.70840639 -8.77761142 32.9353511 -6.61645508 22.89379883 C-6.05578469 20.28120825 -5.51252181 17.66538624 -4.97070312 15.04882812 C-4.61820555 13.3825968 -4.26472695 11.71657265 -3.91015625 10.05078125 C-3.66786034 8.88063225 -3.66786034 8.88063225 -3.42066956 7.68684387 C-2.23025598 2.23025598 -2.23025598 2.23025598 0 0 Z " fill="#1334BE" transform="translate(232,446)"/>
<path d="M0 0 C3.15798269 1.32620427 4.55955507 2.37358786 6.0859375 5.4375 C6.45267578 6.15550781 6.81941406 6.87351562 7.19726562 7.61328125 C7.58591797 8.40089844 7.97457031 9.18851563 8.375 10 C9.24573894 11.70917845 10.1182398 13.41746005 10.9921875 15.125 C11.46624023 16.05699219 11.94029297 16.98898438 12.42871094 17.94921875 C15.37678175 23.67313001 18.4439169 29.33329943 21.5 35 C22.11149902 36.13953125 22.72299805 37.2790625 23.35302734 38.453125 C23.92746582 39.52046875 24.5019043 40.5878125 25.09375 41.6875 C25.60615234 42.64011719 26.11855469 43.59273437 26.64648438 44.57421875 C28.03599138 47.13954644 28.03599138 47.13954644 30 50 C30 51.32 30 52.64 30 54 C20.66026882 50.33902855 15.85666283 35.40125355 11.3125 26.8125 C10.65597884 25.58117759 9.99907912 24.35005694 9.34179688 23.11914062 C7.54744689 19.75327138 5.77049571 16.37848731 4 13 C3.55865723 12.16259277 3.11731445 11.32518555 2.66259766 10.46240234 C0.77205342 6.80088389 -0.52283339 4.18266712 0 0 Z " fill="#1132BD" transform="translate(137,34)"/>
<path d="M0 0 C-2.81026089 6.55295857 -5.57680395 12.40512484 -12 16 C-14.93794608 16.96831182 -16.81170139 17.05226719 -20 17 C-22.5 15.5625 -22.5 15.5625 -24 14 C-23.75434626 10.39707851 -23.55552951 8.54297518 -20.92578125 5.97265625 C-17.57096816 3.71073287 -14.1973205 2.40063883 -10.375 1.1875 C-9.37339844 0.84428711 -9.37339844 0.84428711 -8.3515625 0.49414062 C-3.38741087 -1.12913696 -3.38741087 -1.12913696 0 0 Z " fill="#FDF7F7" transform="translate(162,297)"/>
<path d="M0 0 C0 1.65 0 3.3 0 5 C-1.31088682 5.31919939 -2.62385248 5.62985947 -3.9375 5.9375 C-4.66839844 6.11152344 -5.39929688 6.28554688 -6.15234375 6.46484375 C-13.95787723 7.93172727 -21.63590787 8.13069702 -29.5625 8.0625 C-30.57119141 8.05798828 -31.57988281 8.05347656 -32.61914062 8.04882812 C-35.07949147 8.03716769 -37.53971239 8.02080378 -40 8 C-40 7.01 -40 6.02 -40 5 C-36.97422822 2.98281882 -35.65967922 2.61688163 -32.16796875 2.1484375 C-31.21027588 2.01928955 -30.25258301 1.8901416 -29.26586914 1.75708008 C-28.25000732 1.63099365 -27.23414551 1.50490723 -26.1875 1.375 C-24.64147095 1.17716919 -24.64147095 1.17716919 -23.06420898 0.9753418 C-15.32661954 0.03835151 -7.79632549 -0.36481939 0 0 Z " fill="#1132BD" transform="translate(71,292)"/>
<path d="M0 0 C0.99 0 1.98 0 3 0 C4.25698199 2.51396398 4.38191354 4.63363137 4.68359375 7.43359375 C4.80565186 8.54895508 4.92770996 9.66431641 5.0534668 10.81347656 C5.18019775 12.0094043 5.30692871 13.20533203 5.4375 14.4375 C5.56874268 15.65276367 5.69998535 16.86802734 5.83520508 18.12011719 C6.1007557 20.58429705 6.36467878 23.04865287 6.62695312 25.51318359 C6.95715706 28.59955312 7.29634392 31.68470702 7.640625 34.76953125 C7.82312802 36.42966428 8.00543521 38.08981885 8.1875 39.75 C8.2712085 40.4917749 8.35491699 41.2335498 8.44116211 41.99780273 C8.91054929 46.36780242 9.07463283 50.61388598 9 55 C8.01 55 7.02 55 6 55 C1.06583785 50.06583785 2.03714299 33.6889955 1.375 27 C1.2409375 25.72382812 1.106875 24.44765625 0.96875 23.1328125 C0.19305353 15.39167838 -0.17926198 7.77888358 0 0 Z " fill="#1938BF" transform="translate(233,22)"/>
<path d="M0 0 C4.71888868 0.51350008 7.9072554 2.70593811 11.6875 5.375 C16.0416118 8.38738969 20.41646228 11.28796724 24.984375 13.96875 C25.80848877 14.45424316 26.63260254 14.93973633 27.48168945 15.43994141 C29.10104582 16.38621606 30.72712175 17.3210969 32.36010742 18.24365234 C33.09592041 18.67629395 33.8317334 19.10893555 34.58984375 19.5546875 C35.24847412 19.93093262 35.90710449 20.30717773 36.58569336 20.69482422 C37.05241455 21.12553223 37.51913574 21.55624023 38 22 C38 23.32 38 24.64 38 26 C32.78819813 26.68816025 29.47165355 24.36089299 25.1875 21.75 C24.45281494 21.30833496 23.71812988 20.86666992 22.96118164 20.41162109 C17.4602978 17.03846528 12.14675212 13.43178386 6.9375 9.625 C6.24100342 9.12581055 5.54450684 8.62662109 4.8269043 8.11230469 C2.90234375 6.6640625 2.90234375 6.6640625 0 4 C0 2.68 0 1.36 0 0 Z " fill="#0F30BD" transform="translate(68,145)"/>
<path d="M0 0 C0.77602066 0.00202423 1.55204132 0.00404846 2.35157776 0.00613403 C3.14447708 0.00517731 3.9373764 0.00422058 4.75430298 0.00323486 C6.43475931 0.00255302 8.11521826 0.00440757 9.79566956 0.00857544 C12.37230846 0.01391663 14.94877249 0.00863425 17.52540588 0.00222778 C19.15496356 0.0028887 20.78452113 0.00417015 22.41407776 0.00613403 C23.18807419 0.0041098 23.96207062 0.00208557 24.75952148 0 C30.21932235 0.0239907 30.21932235 0.0239907 32.44923401 1.13894653 C32.11923401 2.45894653 31.78923401 3.77894653 31.44923401 5.13894653 C26.19425259 6.01246587 21.14683357 6.29604492 15.82423401 6.26394653 C15.0438678 6.26201294 14.26350159 6.26007935 13.45948792 6.25808716 C6.75513848 6.20867947 0.12281625 5.79923029 -6.55076599 5.13894653 C-6.55076599 -0.83107639 -5.45795324 0.02408843 0 0 Z " fill="#0A2CBB" transform="translate(36.55076599121094,266.8610534667969)"/>
<path d="M0 0 C2.36732532 0.94408151 3.71579589 1.4877135 4.97454834 3.75665283 C5.1966095 4.46247498 5.41867065 5.16829712 5.64746094 5.89550781 C6.03741241 7.09750824 6.03741241 7.09750824 6.4352417 8.3237915 C6.69895569 9.19147156 6.96266968 10.05915161 7.234375 10.953125 C7.51726379 11.84610291 7.80015259 12.73908081 8.09161377 13.65911865 C8.6870154 15.54992613 9.27494391 17.44310062 9.85595703 19.33837891 C10.74394782 22.23028993 11.65700028 25.11333673 12.57421875 27.99609375 C13.14994658 29.83546583 13.72421338 31.67529599 14.296875 33.515625 C14.56868591 34.37520813 14.84049683 35.23479126 15.12054443 36.12042236 C16.4655342 40.54615165 17.32869819 44.31652577 17 49 C16.01 49 15.02 49 14 49 C11.77435863 44.85505554 10.35145209 41.00436976 9.25 36.4375 C7.37730046 28.90808947 4.91287414 21.62007763 2.28613281 14.32202148 C0.54266773 9.3145502 -0.3748195 5.3051375 0 0 Z " fill="#1536BE" transform="translate(318,445)"/>
<path d="M0 0 C10.55772306 -0.75412308 25.94080077 2.08378826 35 8 C35.75390625 10.125 35.75390625 10.125 36 12 C32.83664493 13.01548088 30.79351939 12.95037188 27.5859375 12.14453125 C26.74659668 11.93626709 25.90725586 11.72800293 25.04248047 11.51342773 C24.16221191 11.28212158 23.28194336 11.05081543 22.375 10.8125 C21.47797363 10.58054932 20.58094727 10.34859863 19.65673828 10.10961914 C2.99658426 5.70171463 2.99658426 5.70171463 0.7578125 1.87890625 C0.38269531 0.94884766 0.38269531 0.94884766 0 0 Z " fill="#1233BE" transform="translate(52,211)"/>
<path d="M0 0 C2.34375 0.23803711 2.34375 0.23803711 5 1 C6.40625 2.82250977 6.40625 2.82250977 7.5 5.19140625 C7.9125 6.05443359 8.325 6.91746094 8.75 7.80664062 C9.36875 9.17079102 9.36875 9.17079102 10 10.5625 C10.82933911 12.33650818 11.66263809 14.10867084 12.5 15.87890625 C12.90581299 16.7414502 13.31162598 17.60399414 13.72973633 18.49267578 C15.30182565 21.59576196 17.13336266 24.45836411 19.1003418 27.32397461 C20 29 20 29 19.8125 32 C19.544375 32.66 19.27625 33.32 19 34 C18.01 34 17.02 34 16 34 C10.98446131 28.10089491 7.57650736 20.48740408 4.0625 13.625 C3.6607959 12.85236816 3.2590918 12.07973633 2.84521484 11.28369141 C-0.57540937 4.44393085 -0.57540937 4.44393085 0 0 Z " fill="#1031BD" transform="translate(362,443)"/>
<path d="M0 0 C8.87787191 -0.41460112 17.25411239 0.95948206 25.97045898 2.45361328 C28.45441344 2.87788893 30.94073311 3.28541508 33.42773438 3.69140625 C35.01318666 3.95734663 36.59847958 4.22423918 38.18359375 4.4921875 C38.9241954 4.6131076 39.66479706 4.73402771 40.42784119 4.85861206 C43.89043193 5.462205 46.03085648 6.02057099 49 8 C48.67 8.99 48.34 9.98 48 11 C38.46588502 10.52515148 29.3857858 9.07170423 20.0625 7.0625 C18.78826172 6.79759766 17.51402344 6.53269531 16.20117188 6.25976562 C10.67597574 5.09336749 5.3365784 3.86687377 0 2 C0 1.34 0 0.68 0 0 Z " fill="#1B3AC0" transform="translate(465,303)"/>
<path d="M0 0 C0.99 0 1.98 0 3 0 C2.26101847 8.21206241 -1.77890041 14.16783578 -6 21 C-6.3614209 21.59731934 -6.7228418 22.19463867 -7.09521484 22.81005859 C-11.65791935 30.31349572 -11.65791935 30.31349572 -14 33 C-15.32 33 -16.64 33 -18 33 C-17.47574265 27.63260337 -15.59694723 23.88098362 -12.9375 19.3125 C-12.53772949 18.61640625 -12.13795898 17.9203125 -11.72607422 17.203125 C-4.47673052 4.78058101 -4.47673052 4.78058101 0 0 Z " fill="#0E2FBD" transform="translate(390,58)"/>
<path d="M0 0 C5.961675 0.47787408 10.23189182 2.31465681 15.4375 5.1875 C16.18378662 5.59315186 16.93007324 5.99880371 17.69897461 6.41674805 C22.81498137 9.24155423 27.66945458 12.03801164 32 16 C32 17.32 32 18.64 32 20 C26.89174986 19.51450515 23.45304225 18.46418219 19.1015625 15.76171875 C18.04582031 15.10623047 16.99007812 14.45074219 15.90234375 13.77539062 C14.82082031 13.08638672 13.73929688 12.39738281 12.625 11.6875 C11.52027344 11.01009766 10.41554688 10.33269531 9.27734375 9.63476562 C8.22933594 8.97541016 7.18132812 8.31605469 6.1015625 7.63671875 C5.14588379 7.03561279 4.19020508 6.43450684 3.20556641 5.81518555 C0.84405059 3.87165332 0.30546015 2.98914578 0 0 Z " fill="#0D2FBC" transform="translate(60,131)"/>
<path d="M0 0 C8.0005371 0.43223241 14.608732 2.81916493 22 5.8125 C23.71509766 6.47088867 23.71509766 6.47088867 25.46484375 7.14257812 C26.54894531 7.57634766 27.63304688 8.01011719 28.75 8.45703125 C29.73484375 8.84866455 30.7196875 9.24029785 31.734375 9.64379883 C34 11 34 11 34.828125 13.15893555 C34.88484375 13.76648682 34.9415625 14.37403809 35 15 C27.82975733 15.57093267 22.85937057 13.68823041 16.375 10.75 C15.45976563 10.35425781 14.54453125 9.95851562 13.6015625 9.55078125 C8.75566901 7.41494669 4.19224206 5.25908519 0 2 C0 1.34 0 0.68 0 0 Z " fill="#1031BD" transform="translate(60,186)"/>
<path d="M0 0 C3 1 3 1 4.76171875 4.33203125 C5.41576334 5.82025408 6.0567857 7.31424068 6.6875 8.8125 C7.02910156 9.60479004 7.37070313 10.39708008 7.72265625 11.21337891 C8.83055262 13.80268234 9.91762491 16.39993134 11 19 C11.37979004 19.90637207 11.75958008 20.81274414 12.15087891 21.74658203 C13.278899 24.4514353 14.39280534 27.16156172 15.5 29.875 C15.85022217 30.72425049 16.20044434 31.57350098 16.5612793 32.44848633 C17.04141479 33.64574341 17.04141479 33.64574341 17.53125 34.8671875 C17.81548828 35.56956543 18.09972656 36.27194336 18.39257812 36.99560547 C19 39 19 39 19 43 C17.16601562 42.83959961 17.16601562 42.83959961 15 42 C13.59960938 39.65844727 13.59960938 39.65844727 12.34375 36.56640625 C11.87839844 35.44169922 11.41304687 34.31699219 10.93359375 33.15820312 C10.46050781 31.97162109 9.98742187 30.78503906 9.5 29.5625 C9.02691406 28.41072266 8.55382812 27.25894531 8.06640625 26.07226562 C7.13415948 23.79587912 6.2104944 21.51595724 5.29589844 19.23242188 C4.4675777 17.16630157 3.62814289 15.10457992 2.77441406 13.04882812 C2.41057617 12.16775391 2.04673828 11.28667969 1.671875 10.37890625 C1.3531543 9.61521729 1.03443359 8.85152832 0.70605469 8.06469727 C-0.23216894 5.32107444 -0.30194838 2.86850961 0 0 Z " fill="#1334BE" transform="translate(172,38)"/>
<path d="M0 0 C0.91330078 0.00451172 1.82660156 0.00902344 2.76757812 0.01367188 C4.99095738 0.0253126 7.21419121 0.04166149 9.4375 0.0625 C9.4375 1.3825 9.4375 2.7025 9.4375 4.0625 C5.23161888 6.09341001 1.81166548 6.29603223 -2.83203125 6.2578125 C-3.51303391 6.2549826 -4.19403656 6.25215271 -4.89567566 6.24923706 C-7.05563455 6.23810525 -9.21516794 6.21301457 -11.375 6.1875 C-12.84569711 6.17746111 -14.31640076 6.16833685 -15.78710938 6.16015625 C-19.37904286 6.13818913 -22.97072985 6.1037082 -26.5625 6.0625 C-26.8925 5.0725 -27.2225 4.0825 -27.5625 3.0625 C-18.34069148 0.54746131 -9.54223336 -0.09101176 0 0 Z " fill="#1031BD" transform="translate(489.5625,239.9375)"/>
<path d="M0 0 C6.06610641 0.80427029 9.33113281 6.58107914 13 11 C13.4316748 11.51691406 13.86334961 12.03382812 14.30810547 12.56640625 C15.60161144 14.13265967 16.8671783 15.71749941 18.125 17.3125 C18.89070313 18.27800781 19.65640625 19.24351563 20.4453125 20.23828125 C22 23 22 23 21.7421875 25.85546875 C21.49726563 26.56316406 21.25234375 27.27085938 21 28 C17.73785154 27.75252667 16.90462677 26.89408299 14.66796875 24.41015625 C13.8298288 23.30274583 13.00355865 22.18628142 12.1875 21.0625 C11.7538916 20.47927979 11.3202832 19.89605957 10.87353516 19.29516602 C9.99337067 18.10585553 9.11833457 16.91273215 8.24853516 15.71582031 C7.1105484 14.15192299 5.95277888 12.60246951 4.79296875 11.0546875 C0 4.51438391 0 4.51438391 0 0 Z " fill="#0F30BD" transform="translate(134,78)"/>
<path d="M0 0 C0.495 1.98 0.495 1.98 1 4 C-31.08248238 4.27834508 -31.08248238 4.27834508 -36 1 C-36 0.34 -36 -0.32 -36 -1 C-26.81443531 -5.59278234 -9.82488012 -1.18448501 0 0 Z " fill="#1A3AC0" transform="translate(83,250)"/>
<path d="M0 0 C3 2 3 2 3.63183594 4.71801758 C3.74817383 5.84876709 3.86451172 6.9795166 3.984375 8.14453125 C4.17966797 9.99594727 4.17966797 9.99594727 4.37890625 11.88476562 C4.50136719 13.18091797 4.62382812 14.47707031 4.75 15.8125 C4.95689453 17.73932617 4.95689453 17.73932617 5.16796875 19.70507812 C6.22353149 30.15732568 6.22353149 30.15732568 5 35 C4.01 35 3.02 35 2 35 C-0.13213921 30.51175737 -0.63300496 26.19195697 -1.125 21.3125 C-1.2502002 20.11463867 -1.2502002 20.11463867 -1.37792969 18.89257812 C-2.63961464 6.21393176 -2.63961464 6.21393176 -2 2 C-1.34 1.34 -0.68 0.68 0 0 Z " fill="#1334BE" transform="translate(286,450)"/>
<path d="M0 0 C0.33984375 2.0859375 0.33984375 2.0859375 0 5 C-1.74157462 7.38692968 -3.44756491 9.46692241 -5.4375 11.625 C-6.54044656 12.85813847 -7.64199357 14.09253005 -8.7421875 15.328125 C-9.29229492 15.94107422 -9.84240234 16.55402344 -10.40917969 17.18554688 C-13.48320409 20.69170853 -16.30729136 24.3989948 -19.16015625 28.0859375 C-20.07087891 29.03339844 -20.07087891 29.03339844 -21 30 C-21.99 30 -22.98 30 -24 30 C-23.45632326 26.30275795 -22.59735618 24.01676307 -20.3046875 21.07421875 C-19.75296875 20.35943359 -19.20125 19.64464844 -18.6328125 18.90820312 C-18.05273438 18.17537109 -17.47265625 17.44253906 -16.875 16.6875 C-16.318125 15.96626953 -15.76125 15.24503906 -15.1875 14.50195312 C-13.48346763 12.31301754 -11.75087972 10.15161945 -10 8 C-9.37770508 7.23252441 -8.75541016 6.46504883 -8.11425781 5.67431641 C-7.50163086 4.9426123 -6.88900391 4.2109082 -6.2578125 3.45703125 C-5.70496582 2.79292236 -5.15211914 2.12881348 -4.58251953 1.44458008 C-3 0 -3 0 0 0 Z " fill="#0F30BD" transform="translate(422,79)"/>
<path d="M0 0 C1.32 0.33 2.64 0.66 4 1 C4 14.53 4 28.06 4 42 C2.68 41.67 1.36 41.34 0 41 C0 27.47 0 13.94 0 0 Z " fill="#1132BD" transform="translate(261,38)"/>
<path d="M0 0 C0.66 0 1.32 0 2 0 C1.78823025 6.03543779 0.42082019 11.0931776 -1.8125 16.6875 C-2.06080566 17.31664307 -2.30911133 17.94578613 -2.56494141 18.59399414 C-4.79734265 23.99310841 -7.07045904 28.71363936 -12 32 C-13.10088684 28.02558194 -12.91569155 25.89065572 -11.26953125 22.12890625 C-10.87830078 21.22462891 -10.48707031 20.32035156 -10.08398438 19.38867188 C-9.66439453 18.45603516 -9.24480469 17.52339844 -8.8125 16.5625 C-8.41224609 15.63373047 -8.01199219 14.70496094 -7.59960938 13.74804688 C-5.44933779 8.85156133 -3.29763117 4.22972391 0 0 Z " fill="#1233BE" transform="translate(190,456)"/>
<path d="M0 0 C0.99 0.33 1.98 0.66 3 1 C-0.34677958 8.75223433 -8.67991532 13.64752217 -15.3125 18.5 C-15.91094727 18.94553223 -16.50939453 19.39106445 -17.12597656 19.85009766 C-20.45926863 22.23624012 -21.77259489 23 -26 23 C-25.1575553 16.9398333 -19.55020192 13.54929113 -15 10 C-12.3939859 8.06414222 -9.74489401 6.20328549 -7.0625 4.375 C-6.41200684 3.92495605 -5.76151367 3.47491211 -5.09130859 3.01123047 C-3.44751196 1.92238164 -1.72742676 0.95060818 0 0 Z " fill="#0E30BD" transform="translate(442,130)"/>
<path d="M0 0 C7.10042902 0.98253169 12.97099405 5.35753172 19 9 C19.81629883 9.49097168 20.63259766 9.98194336 21.47363281 10.48779297 C24.07461931 12.06119905 26.66385669 13.65233052 29.25 15.25 C30.08418457 15.75700439 30.91836914 16.26400879 31.77783203 16.78637695 C32.55755371 17.27452881 33.33727539 17.76268066 34.140625 18.265625 C34.83704102 18.69649414 35.53345703 19.12736328 36.25097656 19.57128906 C38.23608469 21.19284863 39.02615864 22.65250339 40 25 C34.54313678 24.5130799 31.09153463 22.54934533 26.625 19.625 C25.94034668 19.18599365 25.25569336 18.7469873 24.55029297 18.29467773 C22.35662607 16.87811146 20.17660908 15.44262513 18 14 C17.25105469 13.50483887 16.50210937 13.00967773 15.73046875 12.49951172 C13.52132908 11.03104431 11.32106021 9.55044488 9.125 8.0625 C8.44131348 7.60246582 7.75762695 7.14243164 7.05322266 6.66845703 C4.06853233 4.61567612 2.03111285 3.04666927 0 0 Z " fill="#1636BF" transform="translate(421,366)"/>
<path d="M0 0 C23.08798422 5.0033283 23.08798422 5.0033283 31 9 C32.37890625 11.15625 32.37890625 11.15625 33 13 C20.71970122 13.81868659 10.63588403 8.65738512 0 3 C0 2.01 0 1.02 0 0 Z " fill="#1132BD" transform="translate(440,313)"/>
<path d="M0 0 C0.99 0 1.98 0 3 0 C5.79873461 10.69116623 8.36408126 20.8955216 8 32 C6.02 32.495 6.02 32.495 4 33 C0.69511559 21.69272252 -0.1486754 11.76187618 0 0 Z " fill="#1434BE" transform="translate(217,38)"/>
<path d="M0 0 C11.86845032 -0.81851382 22.75920154 3.24250041 33 9 C33 9.99 33 10.98 33 12 C25.98042691 12.31319206 20.23412874 9.9836259 13.6875 7.6875 C12.48287109 7.28337891 11.27824219 6.87925781 10.03710938 6.46289062 C8.89435547 6.06650391 7.75160156 5.67011719 6.57421875 5.26171875 C5.52838623 4.90037842 4.48255371 4.53903809 3.4050293 4.16674805 C2.61136963 3.78172119 1.81770996 3.39669434 1 3 C0.67 2.01 0.34 1.02 0 0 Z " fill="#1131BD" transform="translate(458,327)"/>
<path d="M0 0 C5.43459906 0.94679636 10.14591285 3.00933642 15.1875 5.1875 C16.594552 5.79489014 16.594552 5.79489014 18.0300293 6.41455078 C32.21344371 12.63190411 32.21344371 12.63190411 36 16 C36 16.99 36 17.98 36 19 C31.09722442 18.44540223 27.18778024 16.86079194 22.8515625 14.62109375 C22.19417084 14.28956802 21.53677917 13.9580423 20.85946655 13.61647034 C18.77740601 12.56431765 16.70121523 11.50113288 14.625 10.4375 C13.20740544 9.71866264 11.78944012 9.00055593 10.37109375 8.28320312 C6.90971593 6.53055935 3.45355528 4.76800466 0 3 C0 2.01 0 1.02 0 0 Z " fill="#1132BD" transform="translate(448,362)"/>
<path d="M0 0 C-1.02991929 2.92559615 -1.79812158 3.88466035 -4.53442383 5.44799805 C-5.58138428 5.88152588 -6.62834473 6.31505371 -7.70703125 6.76171875 C-8.85107422 7.24060547 -9.99511719 7.71949219 -11.17382812 8.21289062 C-12.37458984 8.69951172 -13.57535156 9.18613281 -14.8125 9.6875 C-16.59624023 10.43483398 -16.59624023 10.43483398 -18.41601562 11.19726562 C-28.02122571 15.17202129 -28.02122571 15.17202129 -33 16 C-33 14.68 -33 13.36 -33 12 C-29.27115082 10.27652453 -25.53579395 8.5681216 -21.79394531 6.87304688 C-20.52354196 6.29506184 -19.25494807 5.71308156 -17.98828125 5.12695312 C-16.16113163 4.28232736 -14.32670848 3.45349334 -12.4921875 2.625 C-11.39245605 2.12226563 -10.29272461 1.61953125 -9.15966797 1.1015625 C-5.88730197 -0.03929018 -3.43676072 -0.21734455 0 0 Z " fill="#1737BF" transform="translate(483,173)"/>
<path d="M0 0 C-1.46676467 3.82799845 -3.29259835 5.05234742 -6.8671875 6.9453125 C-7.83527344 7.46480469 -8.80335938 7.98429688 -9.80078125 8.51953125 C-10.81527344 9.04933594 -11.82976562 9.57914063 -12.875 10.125 C-13.88175781 10.66253906 -14.88851563 11.20007813 -15.92578125 11.75390625 C-18.61015986 13.18343589 -21.29962567 14.60094583 -24 16 C-25.05598389 16.57790283 -25.05598389 16.57790283 -26.13330078 17.16748047 C-28 18 -28 18 -31 18 C-31 17.01 -31 16.02 -31 15 C-29.45874023 13.71313477 -29.45874023 13.71313477 -27.30859375 12.44140625 C-26.13780273 11.73854492 -26.13780273 11.73854492 -24.94335938 11.02148438 C-24.11642578 10.54001953 -23.28949219 10.05855469 -22.4375 9.5625 C-21.63763672 9.08490234 -20.83777344 8.60730469 -20.01367188 8.11523438 C-18.43082008 7.17327604 -16.84353158 6.23872966 -15.25170898 5.31201172 C-13.81733854 4.47624171 -12.38899637 3.6299752 -10.96899414 2.77001953 C-7.06802505 0.43863141 -4.58078808 -0.44690615 0 0 Z " fill="#1132BE" transform="translate(463,159)"/>
<path d="M0 0 C-0.24671008 4.6194336 -2.16979585 6.54942384 -5.41601562 9.50976562 C-6.00060547 10.02216797 -6.58519531 10.53457031 -7.1875 11.0625 C-7.75275391 11.57876953 -8.31800781 12.09503906 -8.90039062 12.62695312 C-18.21207205 21 -18.21207205 21 -23 21 C-22.59130286 16.51508664 -19.43529878 14.02209173 -16.375 11.0625 C-15.83174072 10.52979492 -15.28848145 9.99708984 -14.72875977 9.44824219 C-4.95888148 0 -4.95888148 0 0 0 Z " fill="#1132BD" transform="translate(445,113)"/>
<path d="M0 0 C-1.38445 7.92115695 -10.28786252 14.77987437 -16 20 C-20.3125 23 -20.3125 23 -23 23 C-21.53127341 14.50774756 -11.45993864 7.0667638 -5.25 1.5625 C-3 0 -3 0 0 0 Z " fill="#0F31BD" transform="translate(135,402)"/>
<path d="M0 0 C0.66 0 1.32 0 2 0 C2.48538224 9.86943894 0.67113686 19.3113851 -1 29 C-2.32 29 -3.64 29 -5 29 C-5.34560111 19.63036989 -5.31668334 10.93070239 -2 2 C-1.34 1.34 -0.68 0.68 0 0 Z " fill="#1C3BC0" transform="translate(282,35)"/>
<path d="M0 0 C0.66 0 1.32 0 2 0 C2.24478737 5.97281193 1.32895539 11.40953554 0.125 17.25 C-0.04902344 18.1471875 -0.22304688 19.044375 -0.40234375 19.96875 C-0.57636719 20.82984375 -0.75039063 21.6909375 -0.9296875 22.578125 C-1.08679199 23.35575195 -1.24389648 24.13337891 -1.40576172 24.93457031 C-2 27 -2 27 -4 30 C-4.99 30 -5.98 30 -7 30 C-7.54245156 23.16511029 -6.5604334 17.56895342 -4.625 11.0625 C-4.40368408 10.31685791 -4.18236816 9.57121582 -3.9543457 8.80297852 C-2.93164286 5.50893711 -1.92468235 2.88702352 0 0 Z " fill="#1132BD" transform="translate(301,53)"/>
<path d="M0 0 C3.17315221 0.61575208 5.27471504 1.6760243 7.8984375 3.546875 C8.62546875 4.0625 9.3525 4.578125 10.1015625 5.109375 C10.85179687 5.65078125 11.60203125 6.1921875 12.375 6.75 C13.1175 7.2759375 13.86 7.801875 14.625 8.34375 C23.25050295 14.50046942 23.25050295 14.50046942 27 18 C27 18.99 27 19.98 27 21 C22.18397146 20.51023439 18.96850306 18.18279237 15.1875 15.375 C14.57310059 14.92568115 13.95870117 14.4763623 13.32568359 14.01342773 C2.70620579 6.16844591 2.70620579 6.16844591 0 3 C0 2.01 0 1.02 0 0 Z " fill="#0F30BD" transform="translate(435,381)"/>
<path d="M0 0 C8.3255046 1.50506834 17.60462893 9.73202905 23 16 C23.74609375 18.7421875 23.74609375 18.7421875 24 21 C17.90663542 20.10517024 13.50105289 14.85372405 9 11 C8.1028125 10.25105469 7.205625 9.50210937 6.28125 8.73046875 C5.4665625 8.03566406 4.651875 7.34085937 3.8125 6.625 C3.07644531 5.99851562 2.34039062 5.37203125 1.58203125 4.7265625 C0 3 0 3 0 0 Z " fill="#1132BD" transform="translate(408,384)"/>
<path d="M0 0 C3.67124703 0.57482991 5.35241999 1.98771391 7.93359375 4.60546875 C8.66513672 5.34216797 9.39667969 6.07886719 10.15039062 6.83789062 C10.90513672 7.61326172 11.65988281 8.38863281 12.4375 9.1875 C13.56381836 10.32155273 13.56381836 10.32155273 14.71289062 11.47851562 C26 22.92445855 26 22.92445855 26 27 C22.5576087 26.72219298 21.24471927 26.24990766 18.7890625 23.7421875 C18.07492187 22.79601562 17.36078125 21.84984375 16.625 20.875 C13.46779463 16.82098048 10.25752726 13.1341931 6.57421875 9.5625 C4.17105971 7.17723049 2.06207441 4.68694544 0 2 C0 1.34 0 0.68 0 0 Z " fill="#0D2FBC" transform="translate(386,411)"/>
<path d="M0 0 C-1.0199876 6.04146503 -6.07082664 8.90874679 -10.81445312 12.29541016 C-12.82307998 13.69402792 -14.84424098 15.07122974 -16.875 16.4375 C-17.54160645 16.88689941 -18.20821289 17.33629883 -18.89501953 17.79931641 C-23.7487898 21 -23.7487898 21 -26 21 C-24.7271126 13.36267559 -15.56967293 8.84638017 -9.6875 4.5625 C-9.07688721 4.11310059 -8.46627441 3.66370117 -7.8371582 3.20068359 C-3.35632528 0 -3.35632528 0 0 0 Z " fill="#1132BD" transform="translate(97,382)"/>
<path d="M0 0 C1.74120117 0.00676758 1.74120117 0.00676758 3.51757812 0.01367188 C6.36593934 0.02539353 9.21419222 0.0418024 12.0625 0.0625 C12.0625 1.3825 12.0625 2.7025 12.0625 4.0625 C1.5025 4.0625 -9.0575 4.0625 -19.9375 4.0625 C-19.9375 3.0725 -19.9375 2.0825 -19.9375 1.0625 C-13.29708878 -0.16149452 -6.73528303 -0.04977753 0 0 Z " fill="#1435BE" transform="translate(468.9375,258.9375)"/>
<path d="M0 0 C0.99 0 1.98 0 3 0 C1.87664691 8.90658522 -6.59995729 17.96320296 -13 24 C-13.66 24 -14.32 24 -15 24 C-14.53860846 18.83241479 -12.93486823 16.04963378 -9.75 12 C-8.93789062 10.96359375 -8.12578125 9.9271875 -7.2890625 8.859375 C-6.15597656 7.44398438 -6.15597656 7.44398438 -5 6 C-4.47148437 5.30390625 -3.94296875 4.6078125 -3.3984375 3.890625 C-2.125 2.25 -2.125 2.25 0 0 Z " fill="#0F30BD" transform="translate(134,429)"/>
<path d="M0 0 C5.5021816 -0.23136637 10.13853778 0.5649654 15.4375 2 C16.16904297 2.19078125 16.90058594 2.3815625 17.65429688 2.578125 C19.43819666 3.04450403 21.21939845 3.52118278 23 4 C23.5625 5.9375 23.5625 5.9375 24 8 C23 9 23 9 19.75 9.375 C13.52668882 9.30710933 7.42712406 6.92111493 2 4 C0.6171875 1.828125 0.6171875 1.828125 0 0 Z " fill="#1031BD" transform="translate(50,200)"/>
<path d="M0 0 C-0.96794536 2.45493389 -1.56265078 3.74432942 -3.87597656 5.09667969 C-4.62331055 5.36899414 -5.37064453 5.64130859 -6.140625 5.921875 C-6.96433594 6.22480469 -7.78804688 6.52773437 -8.63671875 6.83984375 C-9.49910156 7.14019531 -10.36148437 7.44054687 -11.25 7.75 C-12.52037109 8.22373047 -12.52037109 8.22373047 -13.81640625 8.70703125 C-18.34875803 10.33529449 -22.11218714 11.41530436 -27 11 C-26.0503006 8.66094802 -25.4466211 7.27997615 -23.27587891 5.91918945 C-22.59960449 5.65323975 -21.92333008 5.38729004 -21.2265625 5.11328125 C-20.4840625 4.81486328 -19.7415625 4.51644531 -18.9765625 4.20898438 C-18.20054687 3.91314453 -17.42453125 3.61730469 -16.625 3.3125 C-15.85671875 3.00505859 -15.0884375 2.69761719 -14.296875 2.38085938 C-4.56375673 -1.46692181 -4.56375673 -1.46692181 0 0 Z " fill="#1737BF" transform="translate(470,196)"/>
<path d="M0 0 C0.99 0 1.98 0 3 0 C3.35737225 6.49226262 2.19919604 11.41753889 0 17.5 C-0.28617187 18.32242188 -0.57234375 19.14484375 -0.8671875 19.9921875 C-1.5671212 21.99866411 -2.28201907 23.99991026 -3 26 C-3.99 26 -4.98 26 -6 26 C-6.79404077 16.94793521 -4.04782579 8.09565159 0 0 Z " fill="#1132BD" transform="translate(325,42)"/>
<path d="M0 0 C3.93174315 3.66777453 6.79936176 7.4400045 9.625 12 C10.0065625 12.60328125 10.388125 13.2065625 10.78125 13.828125 C11.86415065 15.54582948 12.93244336 17.27271735 14 19 C14.58523438 19.9075 15.17046875 20.815 15.7734375 21.75 C17 24 17 24 17 27 C15.28125 26.9140625 15.28125 26.9140625 13 26 C11.33320209 23.81086049 9.91011973 21.71878262 8.5 19.375 C8.12230469 18.77042969 7.74460937 18.16585938 7.35546875 17.54296875 C6.21630503 15.70699697 5.10494115 13.85673922 4 12 C3.61618164 11.36666748 3.23236328 10.73333496 2.83691406 10.08081055 C0.72410839 6.5200125 -0.50846433 4.19483072 0 0 Z " fill="#1233BE" transform="translate(369,422)"/>
<path d="M0 0 C-1.29345607 8.00879648 -10.90681839 13.71985175 -16.80078125 18.53125 C-19 20 -19 20 -22 20 C-19.50950707 12.58067813 -8.56326298 0 0 0 Z " fill="#1434BE" transform="translate(111,404)"/>
<path d="M0 0 C-1.01907953 2.89952391 -1.65348342 3.83222457 -4.46875 5.1953125 C-21.57946395 10.44318611 -21.57946395 10.44318611 -30 10 C-27.7670529 6.45253221 -26.09909509 5.35883981 -22.0703125 4.296875 C-20.62978516 3.91015625 -20.62978516 3.91015625 -19.16015625 3.515625 C-17.65775391 3.13664062 -17.65775391 3.13664062 -16.125 2.75 C-15.13113281 2.481875 -14.13726562 2.21375 -13.11328125 1.9375 C-8.61857841 0.75816699 -4.67176598 -0.15729852 0 0 Z " fill="#1939C0" transform="translate(80,305)"/>
<path d="M0 0 C4.00246628 0.55461427 6.03233587 2.54627252 8.9375 5.25 C9.81019531 6.05824219 10.68289062 6.86648437 11.58203125 7.69921875 C14.09931392 10.09450064 16.58369661 12.50315316 19 15 C18.67 15.99 18.34 16.98 18 18 C12.50756937 17.72072387 9.81003081 14.40695471 6.1875 10.6875 C5.59001953 10.10548828 4.99253906 9.52347656 4.37695312 8.92382812 C3.81298828 8.35470703 3.24902344 7.78558594 2.66796875 7.19921875 C2.15516357 6.68190186 1.6423584 6.16458496 1.11401367 5.6315918 C0 4 0 4 0 0 Z " fill="#1737BF" transform="translate(116,87)"/>
<path d="M0 0 C-0.11328125 2.2421875 -0.11328125 2.2421875 -1 5 C-3.73046875 7.1328125 -3.73046875 7.1328125 -7.1875 9.125 C-8.87939453 10.11886719 -8.87939453 10.11886719 -10.60546875 11.1328125 C-19.4539749 16 -19.4539749 16 -23 16 C-20.61948547 9.94050848 -14.68224574 7.04415253 -9.375 3.75 C-8.80265625 3.38648438 -8.2303125 3.02296875 -7.640625 2.6484375 C-4.86206124 0.92960504 -3.33058458 0 0 0 Z " fill="#1333BE" transform="translate(97,359)"/>
<path d="M0 0 C0.66 0 1.32 0 2 0 C0.96768707 20.13010204 0.96768707 20.13010204 -1 26 C-1.99 26.66 -2.98 27.32 -4 28 C-5.53868908 26.46131092 -5.24426387 25.08873391 -5.3125 22.9375 C-5.27869338 17.12276089 -4.3006644 4.3006644 0 0 Z " fill="#1838BF" transform="translate(249,462)"/>
<path d="M0 0 C-1.59902961 8.25545517 -8.47954875 15.00590057 -14 21 C-14.99 20.67 -15.98 20.34 -17 20 C-15.68511433 15.18822919 -13.7815643 12.10243284 -10.5625 8.3125 C-9.38880859 6.91451172 -9.38880859 6.91451172 -8.19140625 5.48828125 C-7.46824219 4.66714844 -6.74507813 3.84601563 -6 3 C-5.47277344 2.39542969 -4.94554687 1.79085937 -4.40234375 1.16796875 C-3 0 -3 0 0 0 Z " fill="#1535BF" transform="translate(395,94)"/>
<path d="M0 0 C0.66 0 1.32 0 2 0 C1.11056488 5.40899972 -1.17882752 9.50260754 -3.8125 14.25 C-4.25142578 15.07757813 -4.69035156 15.90515625 -5.14257812 16.7578125 C-5.79323242 17.93730469 -5.79323242 17.93730469 -6.45703125 19.140625 C-7.0444812 20.21618652 -7.0444812 20.21618652 -7.64379883 21.31347656 C-9.29858624 23.3713112 -10.43111831 23.63890537 -13 24 C-11.82394678 14.57773836 -6.54466668 6.69340911 0 0 Z " fill="#1334BE" transform="translate(357,73)"/>
<path d="M0 0 C3.98718441 0.63410644 6.75654996 2.63826057 10.0625 4.875 C11.10535156 5.57367188 12.14820312 6.27234375 13.22265625 6.9921875 C15.39265884 8.56093762 17.20938314 10.02970187 19 12 C18.34 13.32 17.68 14.64 17 16 C12.7402895 14.59284249 10.08008578 12.54513289 6.8125 9.5 C5.95269531 8.7059375 5.09289062 7.911875 4.20703125 7.09375 C2.78748783 5.7470681 1.38359237 4.38359237 0 3 C0 2.01 0 1.02 0 0 Z " fill="#1031BD" transform="translate(102,134)"/>
<path d="M0 0 C3.5026296 0.59287272 5.33030977 1.87513366 7.9375 4.25 C8.62714844 4.87519531 9.31679688 5.50039063 10.02734375 6.14453125 C12.40624942 8.38211579 14.72649669 10.65544971 17 13 C16.67 13.99 16.34 14.98 16 16 C11.771003 14.55425514 8.67557047 12.46581584 5.1875 9.6875 C4.21167969 8.92824219 3.23585938 8.16898437 2.23046875 7.38671875 C0 5 0 5 -0.32421875 2.20703125 C-0.21722656 1.47871094 -0.11023438 0.75039063 0 0 Z " fill="#1535BE" transform="translate(413,409)"/>
<path d="M0 0 C8.89252296 -0.26197285 17.24996282 0.3960652 26 2 C26 2.99 26 3.98 26 5 C17.4488728 5.27733386 9.41518047 4.52016163 1 3 C0.67 2.01 0.34 1.02 0 0 Z " fill="#1232BD" transform="translate(466,265)"/>
<path d="M0 0 C1.87988281 0.27026367 1.87988281 0.27026367 4 1 C5.09667969 2.6105957 5.09667969 2.6105957 5.921875 4.67578125 C6.22480469 5.42150391 6.52773438 6.16722656 6.83984375 6.93554688 C7.14019531 7.71994141 7.44054687 8.50433594 7.75 9.3125 C8.22373047 10.47168945 8.22373047 10.47168945 8.70703125 11.65429688 C10.21457488 15.4492606 11 17.82141485 11 22 C10.01 22 9.02 22 8 22 C7.040062 19.93824636 6.08211576 17.87556531 5.125 15.8125 C4.59132813 14.66394531 4.05765625 13.51539063 3.5078125 12.33203125 C0 4.58031088 0 4.58031088 0 0 Z " fill="#1737BF" transform="translate(339,452)"/>
<path d="M0 0 C3.25573655 1.05883467 4.07041729 2.11292529 5.921875 5.08203125 C6.54381072 6.31928635 7.15284826 7.56309453 7.75 8.8125 C8.06582031 9.42931641 8.38164062 10.04613281 8.70703125 10.68164062 C10.46173175 14.25560852 11.39489348 17.01309464 11 21 C9.19921875 20.8828125 9.19921875 20.8828125 7 20 C5.33203125 17.3046875 5.33203125 17.3046875 3.8125 13.875 C3.30332031 12.75867188 2.79414063 11.64234375 2.26953125 10.4921875 C0.98524563 6.95941414 0.39375172 3.72878134 0 0 Z " fill="#1031BD" transform="translate(197,60)"/>
<path d="M0 0 C0.99 0 1.98 0 3 0 C2.48923027 5.18942048 -0.14692754 8.95309267 -2.875 13.25 C-3.32230469 13.9821875 -3.76960937 14.714375 -4.23046875 15.46875 C-4.66746094 16.16484375 -5.10445312 16.8609375 -5.5546875 17.578125 C-6.14999268 18.52800293 -6.14999268 18.52800293 -6.75732422 19.49707031 C-8 21 -8 21 -11 22 C-10.66662644 15.66590232 -7.33159048 11.17317316 -4 6 C-3.41605469 5.02160156 -3.41605469 5.02160156 -2.8203125 4.0234375 C-1.8125 2.375 -1.8125 2.375 0 0 Z " fill="#1434BE" transform="translate(180,428)"/>
<path d="M0 0 C0.53625 0.226875 1.0725 0.45375 1.625 0.6875 C0.41611015 4.31416955 -0.33953165 4.49037066 -3.625 6.1875 C-6.23003404 7.55400756 -8.71148415 8.90434534 -11.1875 10.5 C-13.375 11.6875 -13.375 11.6875 -17.375 11.6875 C-17.00390909 9.15440121 -16.72981302 7.98642362 -14.73828125 6.30859375 C-14.06152344 5.91800781 -13.38476562 5.52742187 -12.6875 5.125 C-11.96691406 4.70863281 -11.24632812 4.29226562 -10.50390625 3.86328125 C-9.80136719 3.47527344 -9.09882813 3.08726562 -8.375 2.6875 C-7.3025 2.06875 -6.23 1.45 -5.125 0.8125 C-2.375 -0.3125 -2.375 -0.3125 0 0 Z " fill="#1334BE" transform="translate(452.375,140.3125)"/>
<path d="M0 0 C-2.75157727 3.53471849 -6.68733465 4.64968904 -10.75 6.125 C-11.4409375 6.38925781 -12.131875 6.65351563 -12.84375 6.92578125 C-17.24150263 8.55427235 -21.33673989 9.49949302 -26 10 C-25.67 9.01 -25.34 8.02 -25 7 C-22.26953125 5.68359375 -22.26953125 5.68359375 -18.8125 4.4375 C-17.68457031 4.02371094 -16.55664062 3.60992187 -15.39453125 3.18359375 C-14.27433594 2.79300781 -13.15414062 2.40242188 -12 2 C-10.93910156 1.62230469 -9.87820312 1.24460937 -8.78515625 0.85546875 C-5.72725773 -0.08377357 -3.18049815 -0.15145229 0 0 Z " fill="#1031BD" transform="translate(84,330)"/>
<path d="M0 0 C4.78302552 1.83570276 5.86651137 5.01232468 7.9609375 9.4453125 C9.11659417 12.28666386 9.75843674 14.94019871 10 18 C9.01 18 8.02 18 7 18 C5.63034792 15.75820623 4.27947192 13.50827662 2.9375 11.25 C2.54755859 10.61578125 2.15761719 9.9815625 1.75585938 9.328125 C-1.08862881 4.49501234 -1.08862881 4.49501234 -0.60327148 1.78417969 C-0.40419189 1.19540039 -0.2051123 0.60662109 0 0 Z " fill="#1636BF" transform="translate(340,439)"/>
<path d="M0 0 C4.56521068 0.55872728 8.04167956 1.77590177 12.125 3.875 C13.13820313 4.38804687 14.15140625 4.90109375 15.1953125 5.4296875 C17.66196608 6.81073867 19.87410608 8.13857135 22 10 C22 10.66 22 11.32 22 12 C16.34880296 11.5097542 12.40295481 9.25848055 7.625 6.4375 C6.88894531 6.01275391 6.15289062 5.58800781 5.39453125 5.15039062 C3.59160301 4.10843859 1.79512947 3.05533146 0 2 C0 1.34 0 0.68 0 0 Z " fill="#1233BE" transform="translate(435,334)"/>
<path d="M0 0 C0 1.32 0 2.64 0 4 C-5.61 4.66 -11.22 5.32 -17 6 C-17 4.68 -17 3.36 -17 2 C-11.19233704 0.4943096 -6.0018137 -0.21824777 0 0 Z " fill="#1535BE" transform="translate(467,221)"/>
<path d="M0 0 C0.99 0.33 1.98 0.66 3 1 C3 7.93 3 14.86 3 22 C2.01 21.67 1.02 21.34 0 21 C0 14.07 0 7.14 0 0 Z " fill="#082ABB" transform="translate(262,450)"/>
<path d="M0 0 C4.77609498 1.64178265 8.79382904 4.26546702 13 7 C12.67 8.32 12.34 9.64 12 11 C7.71 8.03 3.42 5.06 -1 2 C-0.67 1.34 -0.34 0.68 0 0 Z " fill="#E2E6F6" transform="translate(439,380)"/>
<path d="M0 0 C-1 2 -1 2 -3.28515625 2.8515625 C-4.65994141 3.23441406 -4.65994141 3.23441406 -6.0625 3.625 C-6.98160156 3.88539063 -7.90070313 4.14578125 -8.84765625 4.4140625 C-9.55792969 4.60742188 -10.26820313 4.80078125 -11 5 C-11 4.01 -11 3.02 -11 2 C-9.73392393 1.46770674 -8.46189588 0.94955456 -7.1875 0.4375 C-6.47980469 0.14746094 -5.77210938 -0.14257812 -5.04296875 -0.44140625 C-3 -1 -3 -1 0 0 Z " fill="#E0E4F6" transform="translate(468,201)"/>
</svg>
